<svg width="700" height="230" viewBox="0 0 700 230" fill="none" xmlns="http://www.w3.org/2000/svg">
<g clip-path="url(#clip0_351_2)">
<path d="M540.242 185.737C540.579 183.197 540.747 180.573 540.747 177.886C540.747 175.535 540.621 173.247 540.347 171.043C622.332 180.195 651.626 121.775 663.588 94.0653C598.514 116.884 557.258 89.3631 537.673 69.6517C539.715 64.0678 540.726 57.9591 540.747 51.3887C552.688 66.9227 591.985 106.744 664.936 77.9225L655.417 68.4341L665.778 58.1061L700 92.218L689.639 102.546L679.993 92.9317C679.656 93.6874 679.319 94.4851 678.961 95.3458C668.263 120.662 636.547 195.75 540.242 185.737Z" fill="#008A1A"/>
<path d="M74.2351 100.677L69.244 85.563H29.6098L24.6187 100.677H0L37.9073 1.78418H60.6095L98.8748 100.677H74.2561H74.2351ZM36.5384 64.2772H62.2101L49.2795 25.1062L36.5595 64.2772H36.5384Z" fill="#CE0E2D"/>
<path d="M134.402 80.336H169.825V100.677H111.7V1.78418H134.402V80.336Z" fill="#CE0E2D"/>
<path d="M240.922 49.8347C246.313 51.4511 250.525 54.306 253.536 58.3784C256.548 62.4719 258.064 67.384 258.064 73.1358C258.064 81.4066 255.032 88.0611 248.945 93.0991C242.859 98.1372 234.815 100.656 224.811 100.656H187.515V1.78418H222.242C231.592 1.78418 239.174 4.26123 244.944 9.19434C250.714 14.1274 253.6 20.6769 253.6 28.8008C253.6 33.6709 252.484 37.9323 250.251 41.5639C248.019 45.1955 244.902 47.9455 240.943 49.8347M217.272 18.7457H210.217V42.7395H217.967C221.758 42.7395 224.874 41.6059 227.338 39.3598C229.802 37.1136 231.045 34.2377 231.045 30.7321C231.045 27.2264 229.76 24.3715 227.212 22.1044C224.643 19.8582 221.336 18.7247 217.272 18.7247M219.694 83.8207C223.948 83.8207 227.486 82.6241 230.308 80.2311C233.151 77.838 234.562 74.7942 234.562 71.1416C234.562 67.489 233.193 64.4241 230.455 62.031C227.717 59.638 224.222 58.4414 219.967 58.4414H210.217V83.8207H219.694Z" fill="#CE0E2D"/>
<path d="M335.121 21.8525H299.847V40.8082H323.623V60.3937H299.847V80.6089H335.121V100.677H277.144V1.78418H335.121V21.8525Z" fill="#CE0E2D"/>
<path d="M404.618 58.3365C411.631 62.2829 417.085 67.9298 421.023 75.277C424.941 82.6031 426.899 91.0839 426.899 100.677H403.797C403.797 91.1679 401.354 83.3169 396.489 77.1662C391.624 71.0156 385.222 67.6569 377.283 67.0901V100.677H354.58V1.78418H386.465C396.384 1.78418 404.597 4.70206 411.125 10.5378C417.654 16.3946 420.918 23.6788 420.918 32.4744C420.918 38.2262 419.465 43.3902 416.517 47.9664C413.589 52.5427 409.609 55.9854 404.576 58.3365M382.779 20.488H377.241V47.3157C379.304 47.8615 381.389 48.1344 383.474 48.1344C388.086 48.1344 391.814 46.8749 394.636 44.3348C397.479 41.8158 398.89 38.4991 398.89 34.4056C398.89 30.3122 397.437 26.7856 394.488 24.2665C391.561 21.7265 387.644 20.467 382.758 20.467" fill="#CE0E2D"/>
<path d="M525.9 87.8512C531.313 82.4983 535.23 76.4316 537.673 69.6512C539.715 64.0674 540.726 57.9587 540.747 51.3883V51.2623C540.747 36.6729 535.798 24.4766 525.9 14.6734C516.002 4.89112 503.746 0 489.13 0C474.515 0 462.132 4.89112 452.255 14.6734C442.378 24.4766 437.45 36.6729 437.45 51.2623C437.45 65.8517 442.378 78.048 452.255 87.8512C462.132 97.6335 474.41 102.525 489.13 102.525C503.851 102.525 516.002 97.6335 525.9 87.8512ZM468.892 71.9184C463.522 66.3975 460.826 59.4911 460.826 51.2203C460.826 42.9495 463.522 36.0641 468.892 30.5433C474.262 25.0224 481.022 22.2724 489.13 22.2724C497.238 22.2724 503.935 25.0224 509.305 30.5433C514.676 36.0641 517.35 42.9495 517.35 51.2203C517.35 59.4911 514.655 66.3975 509.263 71.9184C503.872 77.4392 497.154 80.1892 489.13 80.1892C481.107 80.1892 474.262 77.4392 468.892 71.9184Z" fill="#CE0E2D"/>
<path d="M139.562 128.408C154.262 128.408 166.581 133.152 176.458 142.619C186.356 152.087 191.305 163.842 191.305 177.865C191.305 191.887 186.356 203.643 176.458 213.11C166.56 222.578 154.262 227.322 139.562 227.322H110.5V128.429H139.562V128.408ZM138.319 207.925C146.996 207.925 154.093 205.133 159.632 199.549C165.17 193.966 167.929 186.744 167.929 177.907C167.929 169.069 165.17 161.827 159.632 156.222C154.093 150.617 146.996 147.804 138.319 147.804H133.202V207.946H138.319V207.925Z" fill="#CE0E2D"/>
<path d="M215.587 126.75C219.188 126.75 222.179 127.946 224.537 130.339C226.917 132.732 228.096 135.902 228.096 139.848C228.096 145.789 224.306 153.598 216.745 163.296H203.12C207.542 158.426 210.617 154.102 212.323 150.344C209.606 149.778 207.395 148.497 205.689 146.44C203.983 144.404 203.12 141.927 203.12 139.03C203.12 135.545 204.32 132.606 206.721 130.276C209.122 127.925 212.07 126.75 215.587 126.75Z" fill="#CE0E2D"/>
<path d="M285.926 229.148C271.206 229.148 258.928 224.257 249.051 214.454C239.174 204.651 234.246 192.475 234.246 177.865C234.246 163.254 239.174 151.079 249.051 141.276C258.928 131.473 271.206 126.582 285.926 126.582C300.647 126.582 312.798 131.473 322.696 141.276C332.594 151.058 337.543 163.254 337.543 177.865C337.543 192.475 332.594 204.651 322.696 214.454C312.798 224.236 300.542 229.148 285.926 229.148ZM285.926 206.813C293.95 206.813 300.668 204.063 306.059 198.542C311.45 193.021 314.146 186.136 314.146 177.844C314.146 169.552 311.471 162.688 306.08 157.167C300.71 151.646 293.992 148.896 285.905 148.896C277.818 148.896 271.037 151.646 265.667 157.167C260.297 162.688 257.601 169.573 257.601 177.844C257.601 186.115 260.297 193.021 265.667 198.542C271.037 204.063 277.776 206.813 285.905 206.813" fill="#CE0E2D"/>
<path d="M404.618 184.939C411.631 188.885 417.085 194.532 421.023 201.879C424.941 209.206 426.899 217.686 426.899 227.28H403.797C403.797 217.77 401.354 209.919 396.489 203.769C391.624 197.618 385.222 194.259 377.283 193.693V227.28H354.58V128.408H386.465C396.384 128.408 404.597 131.326 411.125 137.161C417.654 142.997 420.918 150.302 420.918 159.098C420.918 164.85 419.465 170.014 416.517 174.59C413.589 179.166 409.609 182.609 404.576 184.96M382.779 147.112H377.241V173.939C379.304 174.485 381.389 174.758 383.474 174.758C388.086 174.758 391.814 173.498 394.636 170.958C397.479 168.439 398.89 165.123 398.89 161.029C398.89 156.936 397.437 153.409 394.488 150.89C391.561 148.35 387.644 147.091 382.758 147.091" fill="#CE0E2D"/>
<path d="M525.9 214.454C533.966 206.477 538.747 196.905 540.242 185.737C540.579 183.197 540.747 180.573 540.747 177.886C540.747 175.535 540.621 173.247 540.347 171.042C539.02 159.413 534.219 149.505 525.9 141.297C516.002 131.494 503.746 126.603 489.13 126.603C474.515 126.603 462.132 131.494 452.255 141.297C442.378 151.079 437.45 163.275 437.45 177.886C437.45 192.496 442.378 204.672 452.255 214.454C462.132 224.257 474.41 229.148 489.13 229.148C503.851 229.148 516.002 224.257 525.9 214.454ZM468.892 198.521C463.522 193.021 460.826 186.115 460.826 177.844C460.826 169.573 463.522 162.667 468.892 157.146C474.262 151.625 481.022 148.875 489.13 148.875C497.238 148.875 503.935 151.625 509.305 157.146C514.676 162.667 517.35 169.573 517.35 177.844C517.35 186.115 514.655 193.021 509.263 198.521C503.872 204.042 497.154 206.813 489.13 206.813C481.107 206.813 474.262 204.042 468.892 198.521Z" fill="#CE0E2D"/>
</g>
<defs>
<clipPath id="clip0_351_2">
<rect width="700" height="229.148" fill="white"/>
</clipPath>
</defs>
</svg>
